<mxfile host="app.diagrams.net" agent="Mozilla/5.0 (Macintosh; Intel Mac OS X 10_15_7) AppleWebKit/537.36 (KHTML, like Gecko) Chrome/135.0.0.0 Safari/537.36" version="26.2.12">
  <diagram name="Page-1" id="6m9SVbbUDYMRknj55Dc2">
    <mxGraphModel dx="791" dy="1015" grid="1" gridSize="10" guides="1" tooltips="1" connect="1" arrows="1" fold="1" page="1" pageScale="1" pageWidth="850" pageHeight="1100" math="0" shadow="0">
      <root>
        <mxCell id="0" />
        <mxCell id="1" parent="0" />
        <mxCell id="XgOJh2Akvv1iqKKhdD9z-18" value="DynamoDB" style="outlineConnect=0;dashed=0;verticalLabelPosition=bottom;verticalAlign=top;align=center;html=1;shape=mxgraph.aws3.dynamo_db;fillColor=#2E73B8;gradientColor=none;" vertex="1" parent="1">
          <mxGeometry x="690" y="399.5" width="72" height="81" as="geometry" />
        </mxCell>
        <mxCell id="XgOJh2Akvv1iqKKhdD9z-1" value="API Gateway" style="sketch=0;points=[[0,0,0],[0.25,0,0],[0.5,0,0],[0.75,0,0],[1,0,0],[0,1,0],[0.25,1,0],[0.5,1,0],[0.75,1,0],[1,1,0],[0,0.25,0],[0,0.5,0],[0,0.75,0],[1,0.25,0],[1,0.5,0],[1,0.75,0]];outlineConnect=0;fontColor=#232F3E;fillColor=#0000FF;strokeColor=#ffffff;dashed=0;verticalLabelPosition=bottom;verticalAlign=top;align=center;html=1;fontSize=12;fontStyle=0;aspect=fixed;shape=mxgraph.aws4.resourceIcon;resIcon=mxgraph.aws4.api_gateway;" vertex="1" parent="1">
          <mxGeometry x="290" y="400" width="80" height="80" as="geometry" />
        </mxCell>
        <mxCell id="XgOJh2Akvv1iqKKhdD9z-2" value="Lambda" style="outlineConnect=0;dashed=0;verticalLabelPosition=bottom;verticalAlign=top;align=center;html=1;shape=mxgraph.aws3.lambda_function;fillColor=#F58534;gradientColor=none;" vertex="1" parent="1">
          <mxGeometry x="490" y="400" width="70" height="70" as="geometry" />
        </mxCell>
        <mxCell id="XgOJh2Akvv1iqKKhdD9z-13" value="" style="shape=image;html=1;verticalAlign=top;verticalLabelPosition=bottom;labelBackgroundColor=#ffffff;imageAspect=0;aspect=fixed;image=https://cdn2.iconfinder.com/data/icons/whcompare-isometric-web-hosting-servers/50/ssl-certificate-128.png;flipV=0;flipH=1;" vertex="1" parent="1">
          <mxGeometry x="60" y="370" width="130" height="130" as="geometry" />
        </mxCell>
        <mxCell id="XgOJh2Akvv1iqKKhdD9z-16" value="" style="group" vertex="1" connectable="0" parent="1">
          <mxGeometry x="190" y="385" width="70" height="100" as="geometry" />
        </mxCell>
        <mxCell id="XgOJh2Akvv1iqKKhdD9z-14" value="" style="shape=image;html=1;verticalAlign=top;verticalLabelPosition=bottom;labelBackgroundColor=#ffffff;imageAspect=0;aspect=fixed;image=https://cdn3.iconfinder.com/data/icons/arrow-outline-8/32/right_2-128.png" vertex="1" parent="XgOJh2Akvv1iqKKhdD9z-16">
          <mxGeometry y="15" width="70" height="70" as="geometry" />
        </mxCell>
        <mxCell id="XgOJh2Akvv1iqKKhdD9z-15" value="" style="shape=image;html=1;verticalAlign=top;verticalLabelPosition=bottom;labelBackgroundColor=#ffffff;imageAspect=0;aspect=fixed;image=https://cdn3.iconfinder.com/data/icons/arrow-outline-8/32/right_2-128.png;flipH=1;" vertex="1" parent="XgOJh2Akvv1iqKKhdD9z-16">
          <mxGeometry y="15" width="70" height="70" as="geometry" />
        </mxCell>
        <mxCell id="XgOJh2Akvv1iqKKhdD9z-19" value="" style="group" vertex="1" connectable="0" parent="1">
          <mxGeometry x="400" y="385" width="70" height="100" as="geometry" />
        </mxCell>
        <mxCell id="XgOJh2Akvv1iqKKhdD9z-20" value="" style="shape=image;html=1;verticalAlign=top;verticalLabelPosition=bottom;labelBackgroundColor=#ffffff;imageAspect=0;aspect=fixed;image=https://cdn3.iconfinder.com/data/icons/arrow-outline-8/32/right_2-128.png" vertex="1" parent="XgOJh2Akvv1iqKKhdD9z-19">
          <mxGeometry y="15" width="70" height="70" as="geometry" />
        </mxCell>
        <mxCell id="XgOJh2Akvv1iqKKhdD9z-21" value="" style="shape=image;html=1;verticalAlign=top;verticalLabelPosition=bottom;labelBackgroundColor=#ffffff;imageAspect=0;aspect=fixed;image=https://cdn3.iconfinder.com/data/icons/arrow-outline-8/32/right_2-128.png;flipH=1;" vertex="1" parent="XgOJh2Akvv1iqKKhdD9z-19">
          <mxGeometry y="15" width="70" height="70" as="geometry" />
        </mxCell>
        <mxCell id="XgOJh2Akvv1iqKKhdD9z-22" value="" style="group" vertex="1" connectable="0" parent="1">
          <mxGeometry x="580" y="390" width="70" height="100" as="geometry" />
        </mxCell>
        <mxCell id="XgOJh2Akvv1iqKKhdD9z-23" value="" style="shape=image;html=1;verticalAlign=top;verticalLabelPosition=bottom;labelBackgroundColor=#ffffff;imageAspect=0;aspect=fixed;image=https://cdn3.iconfinder.com/data/icons/arrow-outline-8/32/right_2-128.png" vertex="1" parent="XgOJh2Akvv1iqKKhdD9z-22">
          <mxGeometry y="15" width="70" height="70" as="geometry" />
        </mxCell>
        <mxCell id="XgOJh2Akvv1iqKKhdD9z-24" value="" style="shape=image;html=1;verticalAlign=top;verticalLabelPosition=bottom;labelBackgroundColor=#ffffff;imageAspect=0;aspect=fixed;image=https://cdn3.iconfinder.com/data/icons/arrow-outline-8/32/right_2-128.png;flipH=1;" vertex="1" parent="XgOJh2Akvv1iqKKhdD9z-22">
          <mxGeometry y="15" width="70" height="70" as="geometry" />
        </mxCell>
      </root>
    </mxGraphModel>
  </diagram>
</mxfile>
